<svg version="1.1" id="Layer_1" xmlns="http://www.w3.org/2000/svg" xmlns:xlink="http://www.w3.org/1999/xlink" x="0px" y="0px"
	 width="100%" viewBox="0 0 679 621" enable-background="new 0 0 679 621" xml:space="preserve">
<path fill="#8FC5FF" opacity="1.000000" stroke="none" 
	d="
M3.000000,1.000000 
	C228.618759,1.000000 454.237518,1.000000 679.928101,1.000000 
	C679.928101,207.908127 679.928101,414.816284 679.928101,622.000000 
	C454.639893,622.000000 229.279648,622.000000 3.432549,621.531982 
	C2.938435,415.208099 2.931086,209.352295 2.927070,3.496487 
	C2.927054,2.664325 2.974643,1.832162 3.000000,1.000000 
M358.500000,460.063232 
	C364.997833,460.063141 371.496216,460.113647 377.993195,460.038849 
	C380.704651,460.007690 384.236359,460.863007 384.777496,456.830994 
	C385.344513,452.605988 381.791443,452.334808 378.866547,451.669952 
	C378.598938,451.609070 378.402008,451.237427 377.792114,450.633911 
	C377.792114,442.863464 378.101135,434.699829 377.675751,426.574615 
	C377.422150,421.730255 379.099518,419.273987 383.362640,416.934723 
	C404.408112,405.386505 418.735687,388.119690 423.837799,364.486725 
	C425.441742,357.057220 426.708344,352.445374 435.513336,353.760376 
	C438.536072,354.211823 440.429962,351.813141 439.319000,348.416504 
	C436.940002,341.143097 428.556824,335.117920 420.971497,335.115234 
	C417.972443,335.114166 414.972839,335.154144 411.974457,335.108582 
	C400.111633,334.928284 401.954590,336.801300 401.596924,324.782928 
	C401.469940,320.516083 402.333252,318.339386 407.301300,318.583466 
	C412.973450,318.862091 413.840668,317.684479 413.734467,311.786469 
	C413.626831,305.807861 413.052582,299.834503 413.037811,293.857941 
	C412.962799,263.534393 413.192902,233.208527 412.864929,202.888336 
	C412.786591,195.645325 413.336243,189.726639 421.399170,187.355148 
	C422.295319,187.091553 423.371246,186.359848 423.726166,185.561722 
	C424.449921,183.934158 424.738892,182.113235 425.207001,180.371979 
	C423.290131,179.923203 421.293213,178.916061 419.477966,179.176254 
	C417.501404,179.459610 415.693420,180.919144 413.672394,181.936127 
	C412.000946,177.494186 414.080414,176.845383 417.567474,176.779648 
	C422.783539,176.681335 423.796387,175.043991 423.834747,168.885757 
	C423.862854,164.370956 422.136078,162.016632 417.368378,162.100250 
	C410.539337,162.220047 403.706604,162.127167 396.875427,162.127136 
	C352.556122,162.126877 308.236847,162.119858 263.917542,162.136688 
	C258.478180,162.138763 257.144012,163.605865 256.986511,169.439102 
	C256.806549,176.103714 257.850769,177.880127 263.211212,177.750214 
	C267.694611,177.641556 268.339478,179.606247 268.330627,183.431900 
	C268.231018,226.418045 268.325043,269.404694 268.184509,312.390625 
	C268.169617,316.952698 269.131042,319.440308 274.203583,318.736023 
	C276.928497,318.357635 278.150940,319.633636 278.039246,322.465759 
	C277.535828,335.231293 280.905365,335.357849 266.452515,334.707733 
	C255.530106,334.216461 250.828629,341.355865 245.472900,348.186310 
	C243.252975,351.017517 244.918777,353.223328 248.237930,353.903564 
	C249.522293,354.166779 250.924820,354.193176 252.221970,353.993134 
	C256.907349,353.270630 258.503113,355.413361 259.160645,359.906799 
	C261.108368,373.217651 266.884949,384.946777 275.110077,395.510406 
	C283.352051,406.095703 293.780853,413.894409 305.722870,419.876190 
	C307.312622,420.672577 309.197144,422.798065 309.269043,424.384064 
	C309.630829,432.365112 309.514984,440.372986 309.352600,448.367096 
	C309.328125,449.572876 308.419769,451.511047 307.498901,451.809204 
	C304.598297,452.748413 302.048523,454.242249 303.440125,457.284760 
	C304.140686,458.816467 307.398315,459.915741 309.516785,459.944427 
	C325.508789,460.161102 341.505066,460.063141 358.500000,460.063232 
z"/>
<path fill="#E8F3FF" opacity="1.000000" stroke="none" 
	d="
M2.500000,1.000000 
	C2.974643,1.832162 2.927054,2.664325 2.927070,3.496487 
	C2.931086,209.352295 2.938435,415.208099 2.972844,621.531982 
	C2.333333,621.666687 1.216333,621.451965 1.090967,620.976013 
	C0.803562,619.885071 1.000000,618.666687 1.000000,617.500000 
	C1.000000,413.500031 0.997849,209.500046 1.041322,5.500082 
	C1.041641,3.999987 1.666667,2.500025 2.500000,1.000000 
z"/>
<path fill="#FCFDFF" opacity="1.000000" stroke="none" 
	d="
M358.000000,460.063324 
	C341.505066,460.063141 325.508789,460.161102 309.516785,459.944427 
	C307.398315,459.915741 304.140686,458.816467 303.440125,457.284760 
	C302.048523,454.242249 304.598297,452.748413 307.498901,451.809204 
	C308.419769,451.511047 309.328125,449.572876 309.352600,448.367096 
	C309.514984,440.372986 309.630829,432.365112 309.269043,424.384064 
	C309.197144,422.798065 307.312622,420.672577 305.722870,419.876190 
	C293.780853,413.894409 283.352051,406.095703 275.110077,395.510406 
	C266.884949,384.946777 261.108368,373.217651 259.160645,359.906799 
	C258.503113,355.413361 256.907349,353.270630 252.221970,353.993134 
	C250.924820,354.193176 249.522293,354.166779 248.237930,353.903564 
	C244.918777,353.223328 243.252975,351.017517 245.472900,348.186310 
	C250.828629,341.355865 255.530106,334.216461 266.452515,334.707733 
	C280.905365,335.357849 277.535828,335.231293 278.039246,322.465759 
	C278.150940,319.633636 276.928497,318.357635 274.203583,318.736023 
	C269.131042,319.440308 268.169617,316.952698 268.184509,312.390625 
	C268.325043,269.404694 268.231018,226.418045 268.330627,183.431900 
	C268.339478,179.606247 267.694611,177.641556 263.211212,177.750214 
	C257.850769,177.880127 256.806549,176.103714 256.986511,169.439102 
	C257.144012,163.605865 258.478180,162.138763 263.917542,162.136688 
	C308.236847,162.119858 352.556122,162.126877 396.875427,162.127136 
	C403.706604,162.127167 410.539337,162.220047 417.368378,162.100250 
	C422.136078,162.016632 423.862854,164.370956 423.834747,168.885757 
	C423.796387,175.043991 422.783539,176.681335 417.567474,176.779648 
	C414.080414,176.845383 412.000946,177.494186 413.672394,181.936127 
	C415.693420,180.919144 417.501404,179.459610 419.477966,179.176254 
	C421.293213,178.916061 423.290131,179.923203 425.206970,180.371979 
	C424.738892,182.113235 424.449921,183.934158 423.726166,185.561722 
	C423.371246,186.359848 422.295319,187.091553 421.399170,187.355148 
	C413.336243,189.726639 412.786591,195.645325 412.864929,202.888336 
	C413.192902,233.208527 412.962799,263.534393 413.037811,293.857941 
	C413.052582,299.834503 413.626831,305.807861 413.734467,311.786469 
	C413.840668,317.684479 412.973450,318.862091 407.301300,318.583466 
	C402.333252,318.339386 401.469940,320.516083 401.596924,324.782928 
	C401.954590,336.801300 400.111633,334.928284 411.974457,335.108582 
	C414.972839,335.154144 417.972443,335.114166 420.971497,335.115234 
	C428.556824,335.117920 436.940002,341.143097 439.319000,348.416504 
	C440.429962,351.813141 438.536072,354.211823 435.513336,353.760376 
	C426.708344,352.445374 425.441742,357.057220 423.837799,364.486725 
	C418.735687,388.119690 404.408112,405.386505 383.362640,416.934723 
	C379.099518,419.273987 377.422150,421.730255 377.675751,426.574615 
	C378.101135,434.699829 377.792114,442.863464 377.792114,450.633911 
	C378.402008,451.237427 378.598938,451.609070 378.866547,451.669952 
	C381.791443,452.334808 385.344513,452.605988 384.777496,456.830994 
	C384.236359,460.863007 380.704651,460.007690 377.993195,460.038849 
	C371.496216,460.113647 364.997833,460.063141 358.000000,460.063324 
M286.538818,310.188324 
	C324.186951,310.188141 361.835388,310.117462 399.482788,310.282196 
	C403.894440,310.301514 405.109528,309.049225 405.087036,304.652496 
	C404.912567,270.503479 404.994904,236.353195 404.975372,202.203308 
	C404.974518,200.699097 404.756134,199.195038 404.639069,197.690903 
	C404.033203,197.659424 403.427307,197.627945 402.821442,197.596466 
	C402.526276,199.469147 402.201599,201.337723 401.941711,203.215286 
	C401.257202,208.161377 398.522980,211.421936 393.826721,212.998749 
	C389.010834,214.615738 384.861694,213.130615 381.595093,209.592072 
	C378.420410,206.153168 377.632965,202.015350 379.470978,197.532501 
	C381.891357,191.629196 387.178253,189.701019 394.303986,190.533844 
	C397.436005,190.899887 401.515656,189.353806 403.941864,187.259125 
	C405.416992,185.985535 405.484161,181.539444 404.411255,179.412659 
	C403.726105,178.054474 399.803375,177.937271 397.330688,177.931763 
	C359.349518,177.847397 321.368134,177.871078 283.386780,177.874832 
	C276.803467,177.875488 276.790771,177.886536 276.790070,184.380798 
	C276.785828,223.361649 276.768982,262.342529 276.800995,301.323334 
	C276.809174,311.256073 275.723846,310.091827 286.538818,310.188324 
M313.403137,416.257568 
	C334.250977,423.676025 355.010590,423.540833 375.181915,414.312012 
	C398.253937,403.756042 413.145081,386.097687 418.579773,361.027161 
	C419.866302,355.092468 418.846191,353.981232 413.168732,353.981079 
	C365.520355,353.979828 317.871948,354.004395 270.223572,354.039062 
	C268.603302,354.040253 266.983154,354.230560 264.594971,354.381165 
	C265.247437,358.263763 265.489716,361.732025 266.433319,364.997650 
	C273.516876,389.512268 289.161407,406.331512 313.403137,416.257568 
M309.500031,318.158417 
	C305.502045,318.158325 301.504028,318.158234 297.506042,318.158203 
	C286.751434,318.158173 287.019989,318.166382 286.688721,329.054688 
	C286.535065,334.104462 288.373688,335.064270 292.997498,335.033478 
	C322.814209,334.834930 352.632782,334.922424 382.450745,334.914642 
	C393.216339,334.911835 392.945679,334.901642 393.283752,324.050781 
	C393.441589,318.985199 391.563690,318.027496 386.960510,318.063324 
	C361.474945,318.261688 335.987091,318.158661 309.500031,318.158417 
M334.686829,427.056305 
	C329.311218,426.227539 323.935638,425.398743 317.930878,424.472961 
	C317.930878,431.772919 317.829193,438.880432 318.052460,445.977722 
	C318.082214,446.923462 319.751556,448.607971 320.675171,448.617401 
	C336.129364,448.775116 351.586121,448.760498 367.040619,448.611084 
	C367.941315,448.602386 369.581848,447.139221 369.603424,446.319397 
	C369.802612,438.750580 369.720947,431.174377 369.720947,424.601471 
	C357.946777,425.462250 346.795410,426.277496 334.686829,427.056305 
M387.581451,206.779694 
	C390.061646,206.174072 393.071869,206.198532 394.822632,204.725769 
	C395.867493,203.846863 395.673065,200.204178 394.733734,198.537827 
	C393.015015,195.488815 389.692596,195.019608 387.035461,197.293930 
	C383.890625,199.985703 383.899902,203.299500 387.581451,206.779694 
z"/>
<path fill="#8FC5FF" opacity="1.000000" stroke="none" 
	d="
M286.045410,310.188599 
	C275.723846,310.091827 276.809174,311.256073 276.800995,301.323334 
	C276.768982,262.342529 276.785828,223.361649 276.790070,184.380798 
	C276.790771,177.886536 276.803467,177.875488 283.386780,177.874832 
	C321.368134,177.871078 359.349518,177.847397 397.330688,177.931763 
	C399.803375,177.937271 403.726105,178.054474 404.411255,179.412659 
	C405.484161,181.539444 405.416992,185.985535 403.941864,187.259125 
	C401.515656,189.353806 397.436005,190.899887 394.303986,190.533844 
	C387.178253,189.701019 381.891357,191.629196 379.470978,197.532501 
	C377.632965,202.015350 378.420410,206.153168 381.595093,209.592072 
	C384.861694,213.130615 389.010834,214.615738 393.826721,212.998749 
	C398.522980,211.421936 401.257202,208.161377 401.941711,203.215286 
	C402.201599,201.337723 402.526276,199.469147 402.821442,197.596466 
	C403.427307,197.627945 404.033203,197.659424 404.639069,197.690903 
	C404.756134,199.195038 404.974518,200.699097 404.975372,202.203308 
	C404.994904,236.353195 404.912567,270.503479 405.087036,304.652496 
	C405.109528,309.049225 403.894440,310.301514 399.482788,310.282196 
	C361.835388,310.117462 324.186951,310.188141 286.045410,310.188599 
z"/>
<path fill="#90C5FF" opacity="1.000000" stroke="none" 
	d="
M313.045532,416.108704 
	C289.161407,406.331512 273.516876,389.512268 266.433319,364.997650 
	C265.489716,361.732025 265.247437,358.263763 264.594971,354.381165 
	C266.983154,354.230560 268.603302,354.040253 270.223572,354.039062 
	C317.871948,354.004395 365.520355,353.979828 413.168732,353.981079 
	C418.846191,353.981232 419.866302,355.092468 418.579773,361.027161 
	C413.145081,386.097687 398.253937,403.756042 375.181915,414.312012 
	C355.010590,423.540833 334.250977,423.676025 313.045532,416.108704 
z"/>
<path fill="#93C7FF" opacity="1.000000" stroke="none" 
	d="
M310.000000,318.158630 
	C335.987091,318.158661 361.474945,318.261688 386.960510,318.063324 
	C391.563690,318.027496 393.441589,318.985199 393.283752,324.050781 
	C392.945679,334.901642 393.216339,334.911835 382.450745,334.914642 
	C352.632782,334.922424 322.814209,334.834930 292.997498,335.033478 
	C288.373688,335.064270 286.535065,334.104462 286.688721,329.054688 
	C287.019989,318.166382 286.751434,318.158173 297.506042,318.158203 
	C301.504028,318.158234 305.502045,318.158325 310.000000,318.158630 
z"/>
<path fill="#93C7FF" opacity="1.000000" stroke="none" 
	d="
M335.165436,427.074524 
	C346.795410,426.277496 357.946777,425.462250 369.720947,424.601471 
	C369.720947,431.174377 369.802612,438.750580 369.603424,446.319397 
	C369.581848,447.139221 367.941315,448.602386 367.040619,448.611084 
	C351.586121,448.760498 336.129364,448.775116 320.675171,448.617401 
	C319.751556,448.607971 318.082214,446.923462 318.052460,445.977722 
	C317.829193,438.880432 317.930878,431.772919 317.930878,424.472961 
	C323.935638,425.398743 329.311218,426.227539 335.165436,427.074524 
z"/>
<path fill="#94C8FF" opacity="1.000000" stroke="none" 
	d="
M387.267761,206.564316 
	C383.899902,203.299500 383.890625,199.985703 387.035461,197.293930 
	C389.692596,195.019608 393.015015,195.488815 394.733734,198.537827 
	C395.673065,200.204178 395.867493,203.846863 394.822632,204.725769 
	C393.071869,206.198532 390.061646,206.174072 387.267761,206.564316 
z"/>
</svg>